#!OML:ASF E:/inclinewalkrobotboard/Project1/Captureday1/Session1/subject1.ASF
:FULLY-SPECIFIED
:DEGREES
163
root 0 0 0 1.94131546809417 -10.701456659138266 0.8865430524600018
lowerback -0.2591214220998368 -1.7510005298737272 -2.6770841748882956
upperback -0.31037380070357345 -2.2907740503048233 1.672259148222969
thorax -0.043230386617795435 -1.1511583270961678 3.1531060569492686
lowerneck -25.0948624876153 -1.783647752049864 -7.899965232994987
upperneck 27.497492724709048 0.018525848979873083 2.1972206042475846
head 13.416985564986403 -0.6188194392286926 2.2966970185498026
rclavicle -2.8879225353986967E-15 1.2960737822886151E-15
rhumerus -32.27581248846932 -3.3090178041200664 -80.5085267534757
rradius 30.362861884190004
rwrist 19.146087569567655
rhand -17.89177409347807 9.320719976817427
rfingers 7.125019999999928
rthumb 8.370069138060389 -20.45952235437025
lclavicle -5.770405956227284E-15 3.5187817741623903E-15
lhumerus -22.887913969701806 -5.344206874899256 91.94904196119711
lradius 63.04307197119325
lwrist 3.6355373555857753
lhand -27.569253567300454 21.940485349980747
lfingers 7.12502
lthumb -1.0013328930260732 52.00090214931015
rfemur -29.578680195786887 -0.3438151196956163 19.43843671616701
rtibia 58.806247809517885
rfoot -4.75047762244291 -8.760108153135759
rtoes 0.8777256198972387
lfemur 0.9880045958636912 -3.776507971272454 -29.21631725891782
ltibia 18.77475320062049
lfoot -21.66795015349196 1.9968667570366239
ltoes 3.8300187562488865
164
root 0 0 0 1.9637689092946227 -10.732345141756358 0.8960131984812725
lowerback -0.2709144036973985 -1.7709124620971206 -2.6803948490171714
upperback -0.2798156051789266 -2.3175169246657257 1.676454154167724
thorax -0.0010201874842008518 -1.1661693515319533 3.159954125101189
lowerneck -25.169137782168878 -1.7847035870598282 -7.922828200345158
upperneck 27.49993862597603 0.026450771695926467 2.1991131048957238
head 13.425800409467778 -0.6128454929601977 2.301181787122042
rclavicle -2.1880906971416464E-15 7.500585251824174E-16
rhumerus -32.58971196881232 -2.88219874435145 -79.93325019519109
rradius 30.00205096132624
rwrist 19.286608678461235
rhand -17.95389484384925 9.316611507756013
rfingers 7.125019999999931
rthumb 8.310560304318464 -20.480126006361083
lclavicle -4.283054396552367E-15 3.0267833358092187E-15
lhumerus -23.051490273949067 -6.369359582318071 91.81639881527668
lradius 63.53925550236535
lwrist 4.019159280797273
lhand -27.386497410128698 22.33359992964776
lfingers 7.125019999999996
lthumb -0.8249890973613461 52.41237967264179
rfemur -31.74230720561976 1.2491787279158277 17.884054321320487
rtibia 46.666223298325136
rfoot -4.3301072310167985 -10.510391886238118
rtoes -1.9444234559585025
lfemur 4.792104986627357 -4.0270280075431195 -29.840776795026454
ltibia 16.64866255043474
lfoot -22.118613101992104 0.955674184252135
ltoes 0.6147696839893584
165
root 0 0 0 1.984781706356925 -10.765011174678975 0.9150141622532343
lowerback -0.2706858274649482 -1.7937816237244053 -2.6833133464948125
upperback -0.2521455031643209 -2.347621010335053 1.6927989838068005
thorax 0.031239455903701696 -1.1829803762240625 3.1797938336068223
lowerneck -25.3517562272856 -1.788154196930728 -7.926354787863664
upperneck 27.256956495270703 0.03819346554817227 2.2057535613892636
head 13.36647760628329 -0.597935856084939 2.301218781088831
rclavicle -6.418300915919151E-16 -2.2951337340581174E-16
rhumerus -33.06805283125857 -2.605038225681507 -79.19159422442644
rradius 29.514998915315196
rwrist 19.56910563167976
rhand -17.963361571516714 9.264224363863883
rfingers 7.125019999999936
rthumb 8.301218977150594 -20.556980546608287
lclavicle -1.7919178295908614E-15 2.2634794418475035E-15
lhumerus -22.939691468860104 -7.297636425216495 91.54109739347885
lradius 64.12859705873473
lwrist 4.384792645192581
lhand -27.248330951661814 22.884979555234786
lfingers 7.12501999999999
lthumb -0.6893444192883971 52.981174946514784
rfemur -32.94787616094955 2.6958473855026153 17.035064485106133
rtibia 36.71047101906038
rfoot -4.423231021642211 -11.798574601670834
rtoes -3.8159322476675035
lfemur 9.754980197539817 -4.45156774216318 -30.26690457243703
ltibia 14.723048632024339
lfoot -20.91290987130961 -0.8360868155831929
ltoes -3.264292421641616
166
root 0 0 0 2.0032495296541972 -10.788182467782338 0.9432455540228566
lowerback -0.23541738491837316 -1.8193708190612061 -2.6810692362719553
upperback -0.22154561835565018 -2.3807476435815245 1.7327025315003182
thorax 0.04777327804338083 -1.2015412771661738 3.222430077975284
lowerneck -25.675520160665467 -1.78820189870218 -7.8930568495287785
upperneck 26.64254796545934 0.0621608497253896 2.214892558737127
head 13.199356765673471 -0.566056027733829 2.293132364270734
rclavicle 1.2366823170481582E-15 -1.216541773021125E-15
rhumerus -33.57788713185156 -2.621849161606238 -78.52552074647119
rradius 29.052262427138743
rwrist 19.931526543179466
rhand -17.90876391832685 9.159111224304397
rfingers 7.125019999999943
rthumb 8.353166378143124 -20.67877451519445
lclavicle 7.076565101431369E-16 1.58938084254898E-15
lhumerus -22.7269591127334 -8.091671076806058 91.29864183772281
lradius 64.70924799350452
lwrist 4.624819346876259
lhand -27.21060158870515 23.3859109381882
lfingers 7.125019999999986
lthumb -0.6487900079338331 53.49287749541801
rfemur -33.44757572464466 3.588763417155554 17.12955362587722
rtibia 30.890420989718987
rfoot -4.785875052570033 -12.177666391985023
rtoes -4.341006308740954
lfemur 16.758847725921413 -4.98782169345341 -30.169477818155663
ltibia 14.453970416443681
lfoot -16.337038281739176 -4.001697012491965
ltoes -8.27736205903836
167
root 0 0 0 2.0192935666478093 -10.777862089435844 0.9819980187649072
lowerback -0.14144323447130414 -1.842661878020463 -2.672650249271258
upperback -0.18555351341867649 -2.4104733505311833 1.807690294249435
thorax 0.03788216338343231 -1.21862530723169 3.2990698448096554
lowerneck -26.17229502582902 -1.7856838953580818 -7.80594780046905
upperneck 25.510799821182253 0.0936805379786616 2.2439716851476788
head 12.878129093722235 -0.5130438575250109 2.2791163930933376
rclavicle 3.0243506175762965E-15 -1.8789772667649557E-15
rhumerus -34.00366651434082 -2.9857176424191714 -78.09624459909436
rradius 28.715512792617464
rwrist 20.287638858594235
rhand -17.7993612465659 9.031677231821003
rfingers 7.1250199999999495
rthumb 8.457816043245645 -20.802683391858903
lclavicle 1.958165419887041E-15 1.0685732138015686E-15
lhumerus -22.666396000552982 -8.617854531580157 91.2276554613965
lradius 65.061398108085
lwrist 4.710185563780596
lhand -27.23288775544123 23.608686851373587
lfingers 7.125019999999983
lthumb -0.6675465454851635 53.7185922474895
rfemur -34.55244469088871 4.008530135319347 17.60964725521716
rtibia 27.74676475865256
rfoot -4.813914265397051 -11.946445143637892
rtoes -3.5161313046610942
lfemur 21.038805753879473 -4.772160032359579 -28.968067510861232
ltibia 20.37032344281172
lfoot -10.23551806240732 -8.240174865938515
ltoes -12.95517876944776
168
root 0 0 0 1.9668418512592885 -10.583796188821498 1.0241352899379448
lowerback 0.10576095025857879 -1.801608127582489 -2.6534581302083815
upperback -0.22908175098829908 -2.3488921775300495 1.9669770463263092
thorax -0.15130850650467154 -1.1876541424985954 3.4593713444661813
lowerneck -26.879307979306184 -1.8079752350416218 -7.557904822369862
upperneck 23.02837824597253 0.07138696846769277 2.386176765428927
head 12.128067114745338 -0.439883466173665 2.2606969452907597
rclavicle 4.009598730820401E-15 -2.081362629966538E-15
rhumerus -34.40909847518431 -3.963556076678202 -77.88453243556775
rradius 28.45545675969694
rwrist 20.70339992929948
rhand -17.580397345773747 8.876933437986025
rfingers 7.125019999999955
rthumb 8.669218292495968 -20.93036948476038
lclavicle 2.5756883700587417E-16 6.974985794461058E-16
lhumerus -22.92726951919762 -8.442282153137826 91.34242461739751
lradius 64.78627237098685
lwrist 4.700044664516577
lhand -27.158795802940656 23.33736698451897
lfingers 7.125019999999984
lthumb -0.5989814808458984 53.447559511341
rfemur -36.60143779438711 4.703321062674794 21.005124095907227
rtibia 24.410954344626038
rfoot -4.85672873728679 -10.957386398768307
rtoes 3.002859438433506
lfemur 13.599202857187455 -2.5326572532471237 -22.662950755106483
ltibia 38.683628116446165
lfoot 3.170528744935778 -15.876779745795455
ltoes -16.96019984060188
